# Blender v2.76 (sub 0) OBJ File: ''
# www.blender.org
mtllib Tree.mtl
o Icosphere_Icosphere.001
v 0.000000 0.482988 0.000000
v 1.570190 1.682514 1.140796
v -0.599747 1.682514 1.845863
v -1.940874 1.682514 0.000000
v -0.599747 1.682514 -1.845863
v 1.570190 1.682514 -1.140796
v 0.599747 3.623399 1.845863
v -1.570190 3.623399 1.140796
v -1.570190 3.623399 -1.140796
v 0.599747 3.623399 -1.845863
v 1.940874 3.623399 0.000000
v 0.000000 4.822926 0.000000
vn 0.187600 -0.794700 0.577400
vn 0.607100 -0.794700 0.000000
vn -0.491100 -0.794700 0.356800
vn -0.491100 -0.794700 -0.356800
vn 0.187600 -0.794700 -0.577400
vn 0.982200 -0.187600 0.000000
vn 0.303500 -0.187600 0.934200
vn -0.794600 -0.187600 0.577400
vn -0.794600 -0.187600 -0.577400
vn 0.303500 -0.187600 -0.934200
vn 0.794600 0.187600 0.577400
vn -0.303500 0.187600 0.934200
vn -0.982200 0.187600 0.000000
vn -0.303500 0.187600 -0.934200
vn 0.794600 0.187600 -0.577400
vn 0.491100 0.794700 0.356800
vn -0.187600 0.794700 0.577400
vn -0.607100 0.794700 0.000000
vn -0.187600 0.794700 -0.577400
vn 0.491100 0.794700 -0.356800
usemtl Leaves
s off
f 1//1 2//1 3//1
f 2//2 1//2 6//2
f 1//3 3//3 4//3
f 1//4 4//4 5//4
f 1//5 5//5 6//5
f 2//6 6//6 11//6
f 3//7 2//7 7//7
f 4//8 3//8 8//8
f 5//9 4//9 9//9
f 6//10 5//10 10//10
f 2//11 11//11 7//11
f 3//12 7//12 8//12
f 4//13 8//13 9//13
f 5//14 9//14 10//14
f 6//15 10//15 11//15
f 7//16 11//16 12//16
f 8//17 7//17 12//17
f 9//18 8//18 12//18
f 10//19 9//19 12//19
f 11//20 10//20 12//20
o Cylinder
v 0.000000 -2.370000 -0.560000
v 0.000000 2.370000 -0.560000
v 0.395980 -2.370000 -0.395980
v 0.395980 2.370000 -0.395980
v 0.560000 -2.370000 0.000000
v 0.560000 2.370000 0.000000
v 0.395980 -2.370000 0.395980
v 0.395980 2.370000 0.395980
v -0.000000 -2.370000 0.560000
v -0.000000 2.370000 0.560000
v -0.395980 -2.370000 0.395980
v -0.395980 2.370000 0.395980
v -0.560000 -2.370000 -0.000000
v -0.560000 2.370000 -0.000000
v -0.395980 -2.370000 -0.395980
v -0.395980 2.370000 -0.395980
v 0.000000 -1.042437 -0.560000
v 0.395980 -1.042437 -0.395980
v 0.560000 -1.042437 0.000000
v 0.395980 -1.042437 0.395980
v -0.000000 -1.042437 0.560000
v -0.395980 -1.042437 0.395980
v -0.560000 -1.042437 -0.000000
v -0.395980 -1.042437 -0.395980
v 0.000000 0.139040 -0.560000
v 0.395980 0.139040 -0.395980
v 0.560000 0.139040 0.000000
v 0.395980 0.139040 0.395980
v -0.000000 0.139040 0.560000
v -0.395980 0.139040 0.395980
v -0.560000 0.139040 -0.000000
v -0.395980 0.139040 -0.395980
v 0.395980 -0.451699 -0.395980
v 0.560000 -0.451699 0.000000
v 0.395980 -0.451699 0.395980
v -0.000000 -0.451699 0.560000
v -0.395980 -0.451699 0.395980
v -0.560000 -0.451699 -0.000000
v -0.395980 -0.451699 -0.395980
v 0.000000 -0.451699 -0.560000
v 0.000000 0.693722 -0.560000
v 0.395980 0.693722 -0.395980
v 0.560000 0.693722 0.000000
v 0.395980 0.693722 0.395980
v -0.000000 0.693722 0.560000
v -0.395980 0.693722 0.395980
v -0.560000 0.693722 -0.000000
v -0.395980 0.693722 -0.395980
v 0.584705 0.335272 -1.282250
v 0.584705 0.926010 -1.282250
v 0.980685 0.926010 -1.118230
v 0.980685 0.335272 -1.118230
v -1.376058 1.319072 0.797944
v -1.376058 0.764389 0.797944
v -1.540078 1.319072 0.401964
v -1.540078 0.764389 0.401964
v 0.779176 0.964599 1.321098
v 0.383197 0.964599 1.485119
v 0.779176 0.373861 1.321098
v 0.383197 0.373861 1.485119
vn 0.382700 0.000000 -0.923900
vn 0.923900 0.000000 -0.382700
vn 0.923900 0.000000 0.382700
vn 0.382700 0.000000 0.923900
vn -0.382700 0.000000 0.923900
vn -0.923900 0.000000 0.382700
vn 0.000000 1.000000 0.000000
vn -0.382700 0.000000 -0.923900
vn -0.923900 0.000000 -0.382700
vn 0.000000 -1.000000 0.000000
vn 0.777200 0.000000 0.629200
vn 0.379500 0.000000 0.925200
vn -0.253300 0.749500 0.611600
vn 0.253300 -0.749500 -0.611600
vn -0.777200 0.000000 -0.629200
vn -0.469700 -0.861100 0.194500
vn -0.379500 0.000000 -0.925200
vn 0.469700 0.861100 -0.194500
vn 0.243400 -0.771600 0.587700
vn -0.243400 0.771600 -0.587700
usemtl TreeTrunk
s off
f 53//21 14//21 16//21 54//21
f 54//22 16//22 18//22 55//22
f 55//23 18//23 20//23 56//23
f 56//24 20//24 22//24 57//24
f 57//25 22//25 24//25 58//25
f 58//26 24//26 26//26 59//26
f 16//27 14//27 28//27 26//27 24//27 22//27 20//27 18//27
f 60//28 28//28 14//28 53//28
f 59//29 26//29 28//29 60//29
f 13//30 15//30 17//30 19//30 21//30 23//30 25//30 27//30
f 25//29 35//29 36//29 27//29
f 27//28 36//28 29//28 13//28
f 23//26 34//26 35//26 25//26
f 21//25 33//25 34//25 23//25
f 19//24 32//24 33//24 21//24
f 17//23 31//23 32//23 19//23
f 15//22 30//22 31//22 17//22
f 13//21 29//21 30//21 15//21
f 50//29 43//29 44//29 51//29
f 51//28 44//28 37//28 52//28
f 49//26 42//26 43//26 50//26
f 48//25 41//25 42//25 49//25
f 47//22 40//22 69//22 71//22
f 46//23 39//23 40//23 47//23
f 45//22 38//22 39//22 46//22
f 38//31 45//31 64//31 63//31
f 29//21 52//21 45//21 30//21
f 30//22 45//22 46//22 31//22
f 31//23 46//23 47//23 32//23
f 32//24 47//24 48//24 33//24
f 33//25 48//25 49//25 34//25
f 34//26 49//26 50//26 35//26
f 36//28 51//28 52//28 29//28
f 35//29 50//29 51//29 36//29
f 43//29 59//29 60//29 44//29
f 44//28 60//28 53//28 37//28
f 42//32 58//32 65//32 66//32
f 41//25 57//25 58//25 42//25
f 40//24 56//24 57//24 41//24
f 39//23 55//23 56//23 40//23
f 38//22 54//22 55//22 39//22
f 37//21 53//21 54//21 38//21
f 61//21 62//21 63//21 64//21
f 37//33 38//33 63//33 62//33
f 45//34 52//34 61//34 64//34
f 52//35 37//35 62//35 61//35
f 66//26 65//26 67//26 68//26
f 43//36 42//36 66//36 68//36
f 59//37 43//37 68//37 67//37
f 58//38 59//38 67//38 65//38
f 71//24 69//24 70//24 72//24
f 48//39 47//39 71//39 72//39
f 40//40 41//40 70//40 69//40
f 41//26 48//26 72//26 70//26
